<?xml version="1.0" encoding="UTF-8"?>
<svg viewBox="0 0 63 58" xmlns="http://www.w3.org/2000/svg">
<path d="m31.5 23.562c-2.3363 0-4.6201 0.6378-6.5627 1.8328-1.9425 1.1949-3.4566 2.8934-4.3506 4.8805-0.8941 1.9872-1.128 4.1738-0.6722 6.2833 0.4558 2.1096 1.5808 4.0473 3.2328 5.5682s3.7568 2.5566 6.0482 2.9762c2.2914 0.4197 4.6665 0.2043 6.825-0.6188 2.1584-0.8231 4.0033-2.217 5.3012-4.0054 1.298-1.7884 1.9908-3.8909 1.9908-6.0418 0-2.8842-1.2445-5.6503-3.4598-7.6898-2.2153-2.0394-5.2198-3.1852-8.3527-3.1852zm-0.7875 9.0625h1.575c1.0376 0.0097 2.0369 0.3621 2.8162 0.993 0.7792 0.6309 1.2865 1.4983 1.4295 2.4445 0.1431 0.9462-0.0876 1.9082-0.65 2.711s-1.4192 1.3931-2.4144 1.6634v1.2506c0 0.4807-0.2075 0.9417-0.5767 1.2816s-0.8699 0.5309-1.3921 0.5309c-0.5221 0-1.0229-0.191-1.3921-0.5309s-0.5766-0.8009-0.5766-1.2816v-1.0875h-1.1813c-0.5221 0-1.0229-0.191-1.3921-0.5309s-0.5766-0.8009-0.5766-1.2816 0.2074-0.9417 0.5766-1.2816 0.87-0.5309 1.3921-0.5309h3.9375c0.1044 0 0.2046-0.0382 0.2784-0.1062 0.0739-0.068 0.1154-0.1602 0.1154-0.2563s-0.0415-0.1883-0.1154-0.2563c-0.0738-0.068-0.174-0.1062-0.2784-0.1062h-1.575c-1.0376-0.0097-2.0369-0.3621-2.8161-0.993s-1.2865-1.4983-1.4296-2.4445 0.0876-1.9082 0.65-2.711 1.4192-1.3931 2.4145-1.6634v-1.2506c0-0.4807 0.2074-0.9417 0.5766-1.2816s0.87-0.5309 1.3921-0.5309c0.5222 0 1.0229 0.191 1.3921 0.5309s0.5767 0.8009 0.5767 1.2816v1.0875h1.1812c0.5222 0 1.0229 0.191 1.3921 0.5309s0.5767 0.8009 0.5767 1.2816-0.2075 0.9417-0.5767 1.2816-0.8699 0.5309-1.3921 0.5309h-3.9375c-0.1044 0-0.2046 0.0382-0.2784 0.1062-0.0739 0.068-0.1153 0.1602-0.1153 0.2563s0.0414 0.1883 0.1153 0.2563c0.0738 0.068 0.174 0.1062 0.2784 0.1062z" fill="#fff"/>
<path d="m58.177 47.959-3.9375-19.539c-0.6135-3.1545-1.995-6.1403-4.0408-8.7331-2.0458-2.5929-4.7028-4.7256-7.7717-6.2381l2.8547-4.3863c0.3456-0.55107 0.5275-1.1762 0.5275-1.8125s-0.1819-1.2614-0.5275-1.8125c-0.3469-0.55319-0.8465-1.0122-1.448-1.3305-0.6016-0.31828-1.2838-0.48458-1.9777-0.48204h-20.711c-0.6938-0.00254-1.3761 0.16376-1.9776 0.48204-0.6016 0.31829-1.1011 0.77727-1.448 1.3305-0.3456 0.55107-0.5276 1.1762-0.5276 1.8125s0.182 1.2614 0.5276 1.8125l2.7562 4.3863c-3.0689 1.5125-5.7259 3.6452-7.7717 6.2381-2.0458 2.5928-3.4273 5.5786-4.0408 8.7331l-3.9375 19.539c-0.15465 0.7841-0.12018 1.5899 0.10096 2.3604s0.62354 1.4869 1.1787 2.0983c0.56376 0.6233 1.2718 1.1226 2.0724 1.4613 0.80054 0.3387 1.6732 0.5083 2.5542 0.4962h41.738c0.8737 0.0132 1.7398-0.1523 2.5357-0.4846 0.7959-0.3322 1.5017-0.8229 2.0667-1.4367s0.975-1.3353 1.2005-2.1126c0.2254-0.7773 0.2607-1.591 0.1033-2.3823h-0.0984zm-26.677 0.9787c-3.115 0-6.1601-0.8504-8.7502-2.4437-2.5901-1.5932-4.6088-3.8578-5.8009-6.5074-1.1921-2.6495-1.504-5.565-0.8962-8.3777 0.6077-2.8127 2.1077-5.3964 4.3104-7.4242 2.2027-2.0279 5.009-3.4089 8.0642-3.9684 3.0552-0.5594 6.222-0.2723 9.1 0.8252 2.8779 1.0974 5.3377 2.9559 7.0684 5.3405 1.7306 2.3845 2.6543 5.1879 2.6543 8.0557 0 3.8457-1.6594 7.5338-4.6131 10.253-2.9536 2.7193-6.9597 4.2469-11.137 4.2469z" fill="#fff"/>
</svg>
