<?xml version="1.0" encoding="UTF-8"?>
<svg fill="none" viewBox="0 0 63 64" xmlns="http://www.w3.org/2000/svg">
<g clip-path="url(#a)">
<path d="m51.896 19.479 0.0393-0.0394-9.7781-9.7519-2.7825 2.7825 5.5387 5.5387c-1.2409 0.4716-2.3094 1.3089-3.0641 2.401-0.7546 1.0922-1.1599 2.3878-1.1621 3.7153 0 3.6225 2.94 6.5625 6.5625 6.5625 0.9319 0 1.8244-0.1969 2.625-0.5513v18.926c0 1.4437-1.1813 2.625-2.625 2.625s-2.625-1.1813-2.625-2.625v-11.812c0-2.9006-2.3494-5.25-5.25-5.25h-2.625v-18.375c0-2.9006-2.3494-5.25-5.25-5.25h-15.75c-2.9006 0-5.25 2.3494-5.25 5.25v42h26.25v-19.688h3.9375v13.125c0 3.6225 2.94 6.5625 6.5625 6.5625s6.5625-2.94 6.5625-6.5625v-24.938c0-1.8112-0.735-3.4519-1.9162-4.6462zm-20.396 7.2712h-15.75v-13.125h15.75v13.125zm15.75 0c-1.4437 0-2.625-1.1812-2.625-2.625s1.1813-2.625 2.625-2.625 2.625 1.1812 2.625 2.625-1.1813 2.625-2.625 2.625z" fill="#fff"/>
</g>
<defs>
<clipPath id="a">
<rect transform="translate(0 .5)" width="63" height="63" fill="#fff"/>
</clipPath>
</defs>
</svg>
