<?xml version="1.0" encoding="UTF-8"?>
<svg fill="none" viewBox="0 0 63 58" xmlns="http://www.w3.org/2000/svg">
<path d="m63 12.429v2.0714c0 0.2747-0.1106 0.5382-0.3075 0.7324s-0.464 0.3033-0.7425 0.3033h-3.15v1.5536c0 0.858-0.7052 1.5536-1.575 1.5536h-51.45c-0.86979 0-1.575-0.6956-1.575-1.5536v-1.5536h-3.15c-0.27848 0-0.54555-0.1091-0.74246-0.3033s-0.30754-0.4577-0.30754-0.7324v-2.0714c1.5017e-6 -0.2049 0.061619-0.4052 0.17706-0.5756 0.11544-0.1703 0.27951-0.3031 0.47145-0.3814l30.45-11.393c0.2571-0.105 0.5459-0.105 0.803 0l30.45 11.393c0.1919 0.0783 0.356 0.2111 0.4714 0.3814 0.1155 0.1704 0.1771 0.3707 0.1771 0.5756zm-3.15 39.357h-56.7c-1.7397 0-3.15 1.3911-3.15 3.1072v2.0714c0 0.2747 0.11062 0.5381 0.30754 0.7323 0.19691 0.1943 0.46398 0.3034 0.74246 0.3034h60.9c0.2785 0 0.5456-0.1091 0.7425-0.3034 0.1969-0.1942 0.3075-0.4576 0.3075-0.7323v-2.0714c0-1.7161-1.4103-3.1072-3.15-3.1072zm-49.35-31.071v24.857h-4.725c-0.86979 0-1.575 0.6956-1.575 1.5536v2.5893h54.6v-2.5893c0-0.858-0.7052-1.5536-1.575-1.5536h-4.725v-24.857h-8.4v24.857h-8.4v-24.857h-8.4v24.857h-8.4v-24.857h-8.4z" fill="#fff"/>
</svg>
