<?xml version="1.0" encoding="UTF-8"?>
<svg fill="none" viewBox="0 0 63 58" xmlns="http://www.w3.org/2000/svg">
<path d="m56.633 11.6h-9.6667v-5.8c0-3.2021-2.5979-5.8-5.8-5.8h-19.333c-3.2021 0-5.8 2.5979-5.8 5.8v5.8h-9.6666c-3.2021 0-5.8 2.5979-5.8 5.8v34.8c0 3.2021 2.5979 5.8 5.8 5.8h50.267c3.2021 0 5.8-2.5979 5.8-5.8v-34.8c0-3.2021-2.5979-5.8-5.8-5.8zm-32.867-3.8667h15.467v3.8667h-15.467v-3.8667zm19.333 29.967c0 0.5317-0.435 0.9667-0.9667 0.9667h-6.7667v6.7666c0 0.5317-0.435 0.9667-0.9666 0.9667h-5.8c-0.5317 0-0.9667-0.435-0.9667-0.9667v-6.7666h-6.7667c-0.5316 0-0.9666-0.435-0.9666-0.9667v-5.8c0-0.5317 0.435-0.9667 0.9666-0.9667h6.7667v-6.7666c0-0.5317 0.435-0.9667 0.9667-0.9667h5.8c0.5316 0 0.9666 0.435 0.9666 0.9667v6.7666h6.7667c0.5317 0 0.9667 0.435 0.9667 0.9667v5.8z" fill="#fff"/>
</svg>
