<?xml version="1.0" encoding="UTF-8"?>
<svg fill="none" viewBox="0 0 71 58" xmlns="http://www.w3.org/2000/svg">
<path d="m68.802 13.435-7.352-11.736c-0.657-1.0535-1.8238-1.6992-3.0699-1.6992h-45.766c-1.2461 0-2.4129 0.6457-3.07 1.6992l-7.352 11.736c-3.7949 6.0605-0.43047 14.489 6.6609 15.452 0.50976 0.068 1.0309 0.102 1.552 0.102 3.3531 0 6.3211-1.4727 8.3601-3.7496 2.0391 2.2769 5.0184 3.7496 8.3602 3.7496 3.3531 0 6.3211-1.4727 8.3602-3.7496 2.039 2.2769 5.0183 3.7496 8.3601 3.7496 3.3531 0 6.3211-1.4727 8.3602-3.7496 2.0504 2.2769 5.0183 3.7496 8.3601 3.7496 0.5325 0 1.0422-0.034 1.552-0.102 7.114-0.9515 10.49-9.3797 6.6836-15.452zm-8.2129 19.19c-1.1328 0-2.2543-0.1699-3.3418-0.4305v11.306h-43.5v-11.306c-1.0875 0.2493-2.209 0.4305-3.3418 0.4305-0.67969 0-1.3707-0.0453-2.0391-0.1359-0.63438-0.0907-1.2574-0.2379-1.8578-0.4078v22.294c0 2.0051 1.6199 3.625 3.625 3.625h50.75c2.0051 0 3.625-1.6199 3.625-3.625v-22.294c-0.6117 0.1812-1.2234 0.3285-1.8578 0.4078-0.691 0.0906-1.3707 0.1359-2.0617 0.1359z" fill="#fff"/>
</svg>
