<?xml version="1.0" encoding="UTF-8"?>
<svg fill="none" viewBox="0 0 63 58" xmlns="http://www.w3.org/2000/svg">
<g clip-path="url(#a)" fill="#fff">
<path d="m53.772 11.102h-5.5371v-1.6993c0-4.6848-4.1399-8.4961-9.2285-8.4961h-29.777c-5.0887 0-9.2285 3.8113-9.2285 8.4961v17.105c0 4.1436 3.205 7.5505 7.3828 8.3271v12.119l8.5729-6.0805c1.6636 2.7117 4.7508 4.3255 8.0384 4.3255h14.774l16.849 11.95v-12.119c4.174-0.7762 7.3828-4.179 7.3828-8.3271v-17.105c0-4.6848-4.1399-8.4961-9.2285-8.4961zm-44.543 20.504c-3.0603 0-5.5371-2.2798-5.5371-5.0977v-17.105c0-2.8108 2.484-5.0976 5.5371-5.0976h29.777c3.0531 0 5.5371 2.2869 5.5371 5.0976v17.105c0 2.8108-2.484 5.0977-5.5371 5.0977h-16.032l-11.9 8.4403v-8.4403h-1.8457zm50.08 5.0976c0 2.8175-2.4768 5.0977-5.5371 5.0977h-1.8457v8.4403l-11.9-8.4403h-16.032c-2.2105 0-4.1912-1.2302-5.0641-3.0365l5.3016-3.7604h14.774c5.0886 0 9.2285-3.8113 9.2285-8.4961v-12.008h5.5371c3.0531 0 5.5371 2.2869 5.5371 5.0977v17.105z"/>
<path d="m11.074 9.4023h26.086v3.3985h-26.086v-3.3985zm0 13.707h18.703v3.3984h-18.703v-3.3984zm0-6.7969h26.086v3.3984h-26.086v-3.3984z"/>
</g>
<defs>
<clipPath id="a">
<rect width="63" height="58" fill="#fff"/>
</clipPath>
</defs>
</svg>
