<?xml version="1.0" encoding="UTF-8"?>
<svg fill="none" viewBox="0 0 63 64" xmlns="http://www.w3.org/2000/svg">
<path d="m22.908 8.3984h3.6776l13.136 18.821c0.3583 0.5119 0.9804 0.8347 1.6065 0.8347h13.734c2.2168 0 3.9375 1.7207 3.9375 3.9375 0.0069 0.519-0.0903 1.0341-0.2857 1.515-0.1955 0.4808-0.4852 0.9176-0.8522 1.2846s-0.8039 0.6568-1.2847 0.8522c-0.4808 0.1955-0.9959 0.2926-1.5149 0.2857h-13.596c-0.3155 0.0047-0.6255 0.0838-0.9046 0.2309-0.2792 0.1471-0.5197 0.3581-0.7019 0.6157l-13.183 18.825h-3.6895l8.2766-16.829c0.5907-1.197-0.4331-2.8389-1.7679-2.8389h-16.998c-0.3263 4e-3 -0.6467 0.0875-0.9335 0.2433-0.2868 0.1557-0.5313 0.379-0.7124 0.6505l-2.0081 3.0437h-3.8824l2.9059-7.1269c0.19121-0.4763 0.19121-1.0081 0-1.4844l-2.9059-7.1427h3.8745l2.016 3.091c0.1819 0.2726 0.4276 0.4965 0.7159 0.6523 0.2882 0.1558 0.6102 0.2387 0.9379 0.2415l16.971-0.0551c1.3309 0 2.3507-1.6459 1.764-2.835l-8.3317-16.813z" fill="#fff"/>
</svg>
